<svg id="Capa_1" enable-background="new 0 0 512 512" height="512" viewBox="0 0 512 512" width="512" xmlns="http://www.w3.org/2000/svg"><g><path d="m468.417 219.375c-12.51-8.335-16.919-24.785-10.254-38.262l19.131-38.672c2.227-4.497 2.051-9.8-.454-14.15-2.505-4.336-7.017-7.148-12.026-7.471l-43.066-2.783c-15-.967-27.026-12.993-27.993-27.993l-2.783-43.066c-.322-5.01-3.135-9.521-7.471-12.026-4.365-2.52-9.683-2.695-14.15-.454l-38.657 19.131c-13.506 6.665-29.956 2.285-38.276-10.254l-23.938-36.904c-5.566-8.35-19.395-8.35-24.961 0l-23.936 36.903c-8.335 12.539-24.814 16.919-38.262 10.254l-38.671-19.131c-4.497-2.241-9.814-2.065-14.15.454-4.336 2.505-7.148 7.017-7.471 12.026l-2.783 43.066c-.967 15-12.993 27.026-27.993 27.993l-43.066 2.783c-5.01.322-9.521 3.135-12.026 7.471-2.505 4.351-2.681 9.653-.454 14.15l19.131 38.657c6.665 13.491 2.256 29.941-10.254 38.276l-36.904 23.938c-4.175 2.783-6.68 7.47-6.68 12.48s2.505 9.697 6.68 12.48l36.903 23.936c12.51 8.335 16.919 24.785 10.254 38.262l-19.131 38.672c-2.227 4.497-2.051 9.8.454 14.15 2.505 4.336 7.017 7.148 12.026 7.471l43.066 2.783c15 .967 27.026 12.993 27.993 27.993l2.783 43.066c.322 5.01 3.135 9.521 7.471 12.026 4.336 2.49 9.653 2.666 14.15.454l38.657-19.131c13.506-6.68 29.941-2.285 38.276 10.254l23.936 36.903c2.783 4.175 7.471 6.68 12.48 6.68s9.697-2.505 12.48-6.68l23.936-36.903c8.32-12.539 24.814-16.934 38.262-10.254l38.672 19.131c4.468 2.212 9.785 2.036 14.15-.454 4.336-2.505 7.148-7.017 7.471-12.026l2.783-43.066c.967-15 12.993-27.026 27.993-27.993l43.066-2.783c5.01-.322 9.521-3.135 12.026-7.471 2.505-4.351 2.681-9.653.454-14.15l-19.131-38.657c-6.665-13.491-2.256-29.941 10.254-38.276l36.903-23.936c4.175-2.783 6.68-7.471 6.68-12.48s-2.505-9.697-6.68-12.48zm-212.417 171.416c-74.443 0-135-60.557-135-135s60.557-135 135-135 135 60.557 135 135-60.557 135-135 135z"/><circle cx="256" cy="255.791" r="105"/></g></svg>